<svg width="238" height="55" viewBox="0 0 238 55" fill="none" xmlns="http://www.w3.org/2000/svg">
<g filter="url(#filter0_d_419_1179)">
<path d="M4.74 40V1.5H20.195C24.1917 1.5 27.235 2.435 29.325 4.305C31.4517 6.13833 32.515 8.50333 32.515 11.4C32.515 13.82 31.855 15.7633 30.535 17.23C29.2517 18.66 27.675 19.6317 25.805 20.145C28.005 20.585 29.82 21.685 31.25 23.445C32.68 25.1683 33.395 27.185 33.395 29.495C33.395 32.5383 32.295 35.05 30.095 37.03C27.895 39.01 24.7783 40 20.745 40H4.74ZM11.78 17.67H19.15C21.13 17.67 22.6517 17.2117 23.715 16.295C24.7783 15.3783 25.31 14.0767 25.31 12.39C25.31 10.7767 24.7783 9.51167 23.715 8.595C22.6883 7.64167 21.13 7.165 19.04 7.165H11.78V17.67ZM11.78 34.28H19.645C21.735 34.28 23.3483 33.8033 24.485 32.85C25.6583 31.86 26.245 30.485 26.245 28.725C26.245 26.9283 25.64 25.5167 24.43 24.49C23.22 23.4633 21.5883 22.95 19.535 22.95H11.78V34.28ZM39.2723 40V0.399998H46.3123V40H39.2723ZM66.5957 40.66C63.9557 40.66 61.5723 40.055 59.4457 38.845C57.3557 37.635 55.6873 35.9667 54.4407 33.84C53.2307 31.6767 52.6257 29.1833 52.6257 26.36C52.6257 23.5367 53.249 21.0617 54.4957 18.935C55.7423 16.7717 57.4107 15.085 59.5007 13.875C61.6273 12.665 64.0107 12.06 66.6507 12.06C69.254 12.06 71.6007 12.665 73.6907 13.875C75.8173 15.085 77.4857 16.7717 78.6957 18.935C79.9423 21.0617 80.5657 23.5367 80.5657 26.36C80.5657 29.1833 79.9423 31.6767 78.6957 33.84C77.4857 35.9667 75.8173 37.635 73.6907 38.845C71.564 40.055 69.199 40.66 66.5957 40.66ZM66.5957 34.555C68.429 34.555 70.024 33.8767 71.3807 32.52C72.7373 31.1267 73.4157 29.0733 73.4157 26.36C73.4157 23.6467 72.7373 21.6117 71.3807 20.255C70.024 18.8617 68.4473 18.165 66.6507 18.165C64.7807 18.165 63.1673 18.8617 61.8107 20.255C60.4907 21.6117 59.8307 23.6467 59.8307 26.36C59.8307 29.0733 60.4907 31.1267 61.8107 32.52C63.1673 33.8767 64.7623 34.555 66.5957 34.555ZM99.9502 40.66C97.3102 40.66 94.9268 40.055 92.8002 38.845C90.7102 37.635 89.0418 35.9667 87.7952 33.84C86.5852 31.6767 85.9802 29.1833 85.9802 26.36C85.9802 23.5367 86.6035 21.0617 87.8502 18.935C89.0968 16.7717 90.7652 15.085 92.8552 13.875C94.9818 12.665 97.3652 12.06 100.005 12.06C102.608 12.06 104.955 12.665 107.045 13.875C109.172 15.085 110.84 16.7717 112.05 18.935C113.297 21.0617 113.92 23.5367 113.92 26.36C113.92 29.1833 113.297 31.6767 112.05 33.84C110.84 35.9667 109.172 37.635 107.045 38.845C104.918 40.055 102.553 40.66 99.9502 40.66ZM99.9502 34.555C101.783 34.555 103.378 33.8767 104.735 32.52C106.092 31.1267 106.77 29.0733 106.77 26.36C106.77 23.6467 106.092 21.6117 104.735 20.255C103.378 18.8617 101.802 18.165 100.005 18.165C98.1352 18.165 96.5218 18.8617 95.1652 20.255C93.8452 21.6117 93.1852 23.6467 93.1852 26.36C93.1852 29.0733 93.8452 31.1267 95.1652 32.52C96.5218 33.8767 98.1168 34.555 99.9502 34.555ZM132.755 40.66C130.188 40.66 127.896 40.0367 125.88 38.79C123.863 37.5433 122.268 35.8383 121.095 33.675C119.921 31.5117 119.335 29.055 119.335 26.305C119.335 23.555 119.921 21.1167 121.095 18.99C122.268 16.8267 123.863 15.14 125.88 13.93C127.896 12.6833 130.188 12.06 132.755 12.06C134.808 12.06 136.605 12.445 138.145 13.215C139.685 13.985 140.931 15.0667 141.885 16.46V0.399998H148.925V40H142.655L141.885 36.095C141.005 37.305 139.831 38.3683 138.365 39.285C136.935 40.2017 135.065 40.66 132.755 40.66ZM134.24 34.5C136.513 34.5 138.365 33.7483 139.795 32.245C141.261 30.705 141.995 28.7433 141.995 26.36C141.995 23.9767 141.261 22.0333 139.795 20.53C138.365 18.99 136.513 18.22 134.24 18.22C132.003 18.22 130.151 18.9717 128.685 20.475C127.218 21.9783 126.485 23.9217 126.485 26.305C126.485 28.6883 127.218 30.65 128.685 32.19C130.151 33.73 132.003 34.5 134.24 34.5Z" fill="white"/>
<path d="M156.259 40V1.5H163.299V17.505H180.569V1.5H187.609V40H180.569V23.225H163.299V40H156.259ZM213.132 40.66C209.282 40.66 205.908 39.8167 203.012 38.13C200.152 36.4433 197.897 34.115 196.247 31.145C194.633 28.1383 193.827 24.6733 193.827 20.75C193.827 16.8267 194.633 13.38 196.247 10.41C197.897 7.40333 200.152 5.05667 203.012 3.37C205.908 1.68333 209.282 0.839999 213.132 0.839999C216.945 0.839999 220.3 1.68333 223.197 3.37C226.093 5.05667 228.348 7.40333 229.962 10.41C231.575 13.38 232.382 16.8267 232.382 20.75C232.382 24.4167 231.667 27.6983 230.237 30.595C228.807 33.455 226.827 35.7283 224.297 37.415L233.207 46.985H224.462L218.412 40.055C216.725 40.4583 214.965 40.66 213.132 40.66ZM213.132 34.335C216.798 34.335 219.713 33.125 221.877 30.705C224.077 28.285 225.177 24.9667 225.177 20.75C225.177 16.5333 224.077 13.215 221.877 10.795C219.713 8.375 216.798 7.165 213.132 7.165C209.465 7.165 206.532 8.375 204.332 10.795C202.132 13.215 201.032 16.5333 201.032 20.75C201.032 24.9667 202.132 28.285 204.332 30.705C206.532 33.125 209.465 34.335 213.132 34.335Z" fill="#D33A39"/>
</g>
<defs>
<filter id="filter0_d_419_1179" x="0.740234" y="0.399902" width="236.467" height="54.585" filterUnits="userSpaceOnUse" color-interpolation-filters="sRGB">
<feFlood flood-opacity="0" result="BackgroundImageFix"/>
<feColorMatrix in="SourceAlpha" type="matrix" values="0 0 0 0 0 0 0 0 0 0 0 0 0 0 0 0 0 0 127 0" result="hardAlpha"/>
<feOffset dy="4"/>
<feGaussianBlur stdDeviation="2"/>
<feColorMatrix type="matrix" values="0 0 0 0 0.904167 0 0 0 0 0.877795 0 0 0 0 0.877795 0 0 0 0.4 0"/>
<feBlend mode="normal" in2="BackgroundImageFix" result="effect1_dropShadow_419_1179"/>
<feBlend mode="normal" in="SourceGraphic" in2="effect1_dropShadow_419_1179" result="shape"/>
</filter>
</defs>
</svg>
